<mxfile host="app.diagrams.net" modified="2021-04-27T07:07:05.514Z" agent="5.0 (Windows NT 10.0; Win64; x64) AppleWebKit/537.36 (KHTML, like Gecko) Chrome/89.0.4389.105 YaBrowser/21.3.2.193 Yowser/2.5 Safari/537.36" etag="_m1Y2zXt6a1svwhqxJ1C" version="14.6.6" type="github">
  <diagram id="fA6KEBX4gj32vOtzz922" name="Page-1">
    <mxGraphModel dx="1972" dy="638" grid="1" gridSize="10" guides="1" tooltips="1" connect="1" arrows="1" fold="1" page="1" pageScale="1" pageWidth="827" pageHeight="1169" math="0" shadow="0">
      <root>
        <mxCell id="0" />
        <mxCell id="1" parent="0" />
        <mxCell id="IV8FgZpogzXeF1_ALtwM-11" value="" style="edgeStyle=orthogonalEdgeStyle;rounded=0;orthogonalLoop=1;jettySize=auto;html=1;" edge="1" parent="1" source="IV8FgZpogzXeF1_ALtwM-1" target="IV8FgZpogzXeF1_ALtwM-3">
          <mxGeometry relative="1" as="geometry" />
        </mxCell>
        <mxCell id="IV8FgZpogzXeF1_ALtwM-1" value="НАЧАЛО" style="ellipse;whiteSpace=wrap;html=1;" vertex="1" parent="1">
          <mxGeometry x="160" y="20" width="160" height="60" as="geometry" />
        </mxCell>
        <mxCell id="IV8FgZpogzXeF1_ALtwM-2" value="КОНЕЦ" style="ellipse;whiteSpace=wrap;html=1;" vertex="1" parent="1">
          <mxGeometry x="-40" y="480" width="160" height="60" as="geometry" />
        </mxCell>
        <mxCell id="IV8FgZpogzXeF1_ALtwM-12" value="" style="edgeStyle=orthogonalEdgeStyle;rounded=0;orthogonalLoop=1;jettySize=auto;html=1;" edge="1" parent="1" source="IV8FgZpogzXeF1_ALtwM-3" target="IV8FgZpogzXeF1_ALtwM-4">
          <mxGeometry relative="1" as="geometry" />
        </mxCell>
        <mxCell id="IV8FgZpogzXeF1_ALtwM-3" value="Ввод num" style="shape=parallelogram;perimeter=parallelogramPerimeter;whiteSpace=wrap;html=1;fixedSize=1;" vertex="1" parent="1">
          <mxGeometry x="160" y="100" width="160" height="60" as="geometry" />
        </mxCell>
        <mxCell id="IV8FgZpogzXeF1_ALtwM-13" value="" style="edgeStyle=orthogonalEdgeStyle;rounded=0;orthogonalLoop=1;jettySize=auto;html=1;" edge="1" parent="1" source="IV8FgZpogzXeF1_ALtwM-4" target="IV8FgZpogzXeF1_ALtwM-5">
          <mxGeometry relative="1" as="geometry" />
        </mxCell>
        <mxCell id="IV8FgZpogzXeF1_ALtwM-4" value="even, odd = 0" style="shape=parallelogram;perimeter=parallelogramPerimeter;whiteSpace=wrap;html=1;fixedSize=1;" vertex="1" parent="1">
          <mxGeometry x="160" y="180" width="160" height="60" as="geometry" />
        </mxCell>
        <mxCell id="IV8FgZpogzXeF1_ALtwM-14" style="edgeStyle=orthogonalEdgeStyle;rounded=0;orthogonalLoop=1;jettySize=auto;html=1;exitX=1;exitY=0.5;exitDx=0;exitDy=0;entryX=0.5;entryY=0;entryDx=0;entryDy=0;" edge="1" parent="1" source="IV8FgZpogzXeF1_ALtwM-5" target="IV8FgZpogzXeF1_ALtwM-6">
          <mxGeometry relative="1" as="geometry" />
        </mxCell>
        <mxCell id="IV8FgZpogzXeF1_ALtwM-15" style="edgeStyle=orthogonalEdgeStyle;rounded=0;orthogonalLoop=1;jettySize=auto;html=1;exitX=0;exitY=0.5;exitDx=0;exitDy=0;entryX=0.5;entryY=0;entryDx=0;entryDy=0;" edge="1" parent="1" source="IV8FgZpogzXeF1_ALtwM-5" target="IV8FgZpogzXeF1_ALtwM-2">
          <mxGeometry relative="1" as="geometry">
            <mxPoint x="40" y="360" as="targetPoint" />
          </mxGeometry>
        </mxCell>
        <mxCell id="IV8FgZpogzXeF1_ALtwM-5" value="num &amp;gt;= 1?" style="rhombus;whiteSpace=wrap;html=1;" vertex="1" parent="1">
          <mxGeometry x="160" y="280" width="160" height="80" as="geometry" />
        </mxCell>
        <mxCell id="IV8FgZpogzXeF1_ALtwM-19" value="" style="edgeStyle=orthogonalEdgeStyle;rounded=0;orthogonalLoop=1;jettySize=auto;html=1;" edge="1" parent="1" source="IV8FgZpogzXeF1_ALtwM-6" target="IV8FgZpogzXeF1_ALtwM-7">
          <mxGeometry relative="1" as="geometry" />
        </mxCell>
        <mxCell id="IV8FgZpogzXeF1_ALtwM-6" value="current = num % 10" style="whiteSpace=wrap;html=1;" vertex="1" parent="1">
          <mxGeometry x="340" y="370" width="120" height="60" as="geometry" />
        </mxCell>
        <mxCell id="IV8FgZpogzXeF1_ALtwM-20" style="edgeStyle=orthogonalEdgeStyle;rounded=0;orthogonalLoop=1;jettySize=auto;html=1;exitX=0;exitY=0.5;exitDx=0;exitDy=0;entryX=0.5;entryY=0;entryDx=0;entryDy=0;" edge="1" parent="1" source="IV8FgZpogzXeF1_ALtwM-7" target="IV8FgZpogzXeF1_ALtwM-9">
          <mxGeometry relative="1" as="geometry" />
        </mxCell>
        <mxCell id="IV8FgZpogzXeF1_ALtwM-21" style="edgeStyle=orthogonalEdgeStyle;rounded=0;orthogonalLoop=1;jettySize=auto;html=1;exitX=1;exitY=0.5;exitDx=0;exitDy=0;entryX=0.5;entryY=0;entryDx=0;entryDy=0;" edge="1" parent="1" source="IV8FgZpogzXeF1_ALtwM-7" target="IV8FgZpogzXeF1_ALtwM-8">
          <mxGeometry relative="1" as="geometry" />
        </mxCell>
        <mxCell id="IV8FgZpogzXeF1_ALtwM-7" value="current % 2 == 0?" style="rhombus;whiteSpace=wrap;html=1;" vertex="1" parent="1">
          <mxGeometry x="335" y="470" width="130" height="80" as="geometry" />
        </mxCell>
        <mxCell id="IV8FgZpogzXeF1_ALtwM-25" style="edgeStyle=orthogonalEdgeStyle;rounded=0;orthogonalLoop=1;jettySize=auto;html=1;exitX=0.5;exitY=1;exitDx=0;exitDy=0;" edge="1" parent="1" source="IV8FgZpogzXeF1_ALtwM-8">
          <mxGeometry relative="1" as="geometry">
            <mxPoint x="240" y="430" as="targetPoint" />
            <Array as="points">
              <mxPoint x="550" y="650" />
              <mxPoint x="180" y="650" />
              <mxPoint x="180" y="480" />
              <mxPoint x="240" y="480" />
            </Array>
          </mxGeometry>
        </mxCell>
        <mxCell id="IV8FgZpogzXeF1_ALtwM-8" value="even += 1" style="whiteSpace=wrap;html=1;" vertex="1" parent="1">
          <mxGeometry x="490" y="570" width="120" height="60" as="geometry" />
        </mxCell>
        <mxCell id="IV8FgZpogzXeF1_ALtwM-24" style="edgeStyle=orthogonalEdgeStyle;rounded=0;orthogonalLoop=1;jettySize=auto;html=1;exitX=0.5;exitY=1;exitDx=0;exitDy=0;" edge="1" parent="1" source="IV8FgZpogzXeF1_ALtwM-9">
          <mxGeometry relative="1" as="geometry">
            <mxPoint x="240" y="440" as="targetPoint" />
            <Array as="points">
              <mxPoint x="260" y="650" />
              <mxPoint x="180" y="650" />
              <mxPoint x="180" y="480" />
              <mxPoint x="240" y="480" />
            </Array>
          </mxGeometry>
        </mxCell>
        <mxCell id="IV8FgZpogzXeF1_ALtwM-9" value="odd += 1" style="whiteSpace=wrap;html=1;" vertex="1" parent="1">
          <mxGeometry x="200" y="570" width="120" height="60" as="geometry" />
        </mxCell>
        <mxCell id="IV8FgZpogzXeF1_ALtwM-17" value="НЕТ" style="text;html=1;align=center;verticalAlign=middle;resizable=0;points=[];autosize=1;strokeColor=none;" vertex="1" parent="1">
          <mxGeometry x="120" y="300" width="40" height="20" as="geometry" />
        </mxCell>
        <mxCell id="IV8FgZpogzXeF1_ALtwM-18" value="ДА" style="text;html=1;align=center;verticalAlign=middle;resizable=0;points=[];autosize=1;strokeColor=none;" vertex="1" parent="1">
          <mxGeometry x="315" y="300" width="30" height="20" as="geometry" />
        </mxCell>
        <mxCell id="IV8FgZpogzXeF1_ALtwM-22" value="ДА" style="text;html=1;align=center;verticalAlign=middle;resizable=0;points=[];autosize=1;strokeColor=none;" vertex="1" parent="1">
          <mxGeometry x="465" y="490" width="30" height="20" as="geometry" />
        </mxCell>
        <mxCell id="IV8FgZpogzXeF1_ALtwM-23" value="НЕТ" style="text;html=1;align=center;verticalAlign=middle;resizable=0;points=[];autosize=1;strokeColor=none;" vertex="1" parent="1">
          <mxGeometry x="290" y="490" width="40" height="20" as="geometry" />
        </mxCell>
        <mxCell id="IV8FgZpogzXeF1_ALtwM-26" value="Вот тут честно не знаю, надо ли в блок-схеме определять эту переменную через параллелограмм" style="shape=callout;whiteSpace=wrap;html=1;perimeter=calloutPerimeter;rotation=50;" vertex="1" parent="1">
          <mxGeometry x="420" y="180" width="260" height="230" as="geometry" />
        </mxCell>
        <mxCell id="IV8FgZpogzXeF1_ALtwM-28" value="" style="edgeStyle=orthogonalEdgeStyle;rounded=0;orthogonalLoop=1;jettySize=auto;html=1;" edge="1" parent="1" source="IV8FgZpogzXeF1_ALtwM-27" target="IV8FgZpogzXeF1_ALtwM-5">
          <mxGeometry relative="1" as="geometry" />
        </mxCell>
        <mxCell id="IV8FgZpogzXeF1_ALtwM-27" value="num = num // 10" style="whiteSpace=wrap;html=1;" vertex="1" parent="1">
          <mxGeometry x="180" y="380" width="120" height="60" as="geometry" />
        </mxCell>
      </root>
    </mxGraphModel>
  </diagram>
</mxfile>
